<?xml version="1.0" encoding="UTF-8" standalone="no"?>
<svg
   xmlns:dc="http://purl.org/dc/elements/1.1/"
   xmlns:cc="http://creativecommons.org/ns#"
   xmlns:rdf="http://www.w3.org/1999/02/22-rdf-syntax-ns#"
   xmlns:svg="http://www.w3.org/2000/svg"
   xmlns="http://www.w3.org/2000/svg"
   xmlns:sodipodi="http://sodipodi.sourceforge.net/DTD/sodipodi-0.dtd"
   xmlns:inkscape="http://www.inkscape.org/namespaces/inkscape"
   version="1.1"
   id="svg2"
   viewBox="0 0 192.45116 14.609375"
   height="4.1230903mm"
   width="54.313995mm"
   inkscape:version="0.91 r13725"
   sodipodi:docname="logo-txorua-simple.svg">
  <sodipodi:namedview
     pagecolor="#ffffff"
     bordercolor="#666666"
     borderopacity="1"
     objecttolerance="10"
     gridtolerance="10"
     guidetolerance="10"
     inkscape:pageopacity="0"
     inkscape:pageshadow="2"
     inkscape:window-width="1366"
     inkscape:window-height="715"
     id="namedview25"
     showgrid="false"
     fit-margin-top="0"
     fit-margin-left="0"
     fit-margin-right="0"
     fit-margin-bottom="0"
     showborder="false"
     inkscape:zoom="1.492556"
     inkscape:cx="41.235539"
     inkscape:cy="-88.492602"
     inkscape:window-x="0"
     inkscape:window-y="0"
     inkscape:window-maximized="1"
     inkscape:current-layer="svg2" />
  <defs
     id="defs4" />
  <metadata
     id="metadata7">
    <rdf:RDF>
      <cc:Work
         rdf:about="">
        <dc:format>image/svg+xml</dc:format>
        <dc:type
           rdf:resource="http://purl.org/dc/dcmitype/StillImage" />
        <dc:title></dc:title>
      </cc:Work>
    </rdf:RDF>
  </metadata>
  <path
     inkscape:connector-curvature="0"
     style="opacity:1;fill:none;fill-opacity:1;fill-rule:nonzero;stroke:none;stroke-width:1.85030985;stroke-linecap:round;stroke-linejoin:round;stroke-miterlimit:4;stroke-dasharray:none;stroke-opacity:1"
     d="M -344.9166,252.04033 A 304.86059,304.86059 0 0 1 -40.056033,-52.820235 304.86059,304.86059 0 0 1 264.80456,252.04033 304.86059,304.86059 0 0 1 -40.056033,556.90091 304.86059,304.86059 0 0 1 -344.9166,252.04033 Z"
     id="path4138" />
  <g
     style="font-style:normal;font-variant:normal;font-weight:normal;font-stretch:normal;font-size:40px;line-height:125%;font-family:Roboto;-inkscape-font-specification:'Roboto, Normal';text-align:start;letter-spacing:0px;word-spacing:0px;writing-mode:lr-tb;text-anchor:start;fill:#ffffff;fill-opacity:1;stroke:none;stroke-width:1px;stroke-linecap:butt;stroke-linejoin:miter;stroke-opacity:1"
     id="text4191"
     transform="translate(-14.708763,93.971115)">
    <path
       d="m 26.290794,-91.402756 -4.355468,0 0,11.845703 -2.929688,0 0,-11.845703 -4.296875,0 0,-2.373047 11.582031,0 0,2.373047 z"
       style="font-style:normal;font-variant:normal;font-weight:bold;font-stretch:normal;font-size:20px;line-height:125%;font-family:Roboto;-inkscape-font-specification:'Roboto, Bold';text-align:start;writing-mode:lr-tb;text-anchor:start"
       id="path4219"
       inkscape:connector-curvature="0" />
    <path
       d="m 33.058372,-88.873459 2.666016,-4.902344 3.369141,0 -4.140625,7.050782 4.248047,7.167968 -3.408204,0 -2.734375,-4.980468 -2.734375,4.980468 -3.408203,0 4.248047,-7.167968 -4.140625,-7.050782 3.369141,0 2.666015,4.902344 z"
       style="font-style:normal;font-variant:normal;font-weight:bold;font-stretch:normal;font-size:20px;line-height:125%;font-family:Roboto;-inkscape-font-specification:'Roboto, Bold';text-align:start;writing-mode:lr-tb;text-anchor:start"
       id="path4221"
       inkscape:connector-curvature="0" />
    <path
       d="m 52.111107,-86.344162 q 0,2.099609 -0.742188,3.681641 -0.742187,1.582031 -2.128906,2.441406 -1.376953,0.859375 -3.164062,0.859375 -1.767579,0 -3.154297,-0.849609 -1.386719,-0.84961 -2.148438,-2.421875 -0.761719,-1.582032 -0.771484,-3.632813 l 0,-0.703125 q 0,-2.099609 0.751953,-3.691406 0.761719,-1.601563 2.138672,-2.451172 1.386719,-0.859375 3.164062,-0.859375 1.777344,0 3.154297,0.859375 1.386719,0.849609 2.138672,2.451172 0.761719,1.591797 0.761719,3.68164 l 0,0.634766 z m -2.96875,-0.644531 q 0,-2.236328 -0.800781,-3.398438 -0.800782,-1.162109 -2.285157,-1.162109 -1.474609,0 -2.27539,1.152344 -0.800782,1.142578 -0.810547,3.359375 l 0,0.693359 q 0,2.177734 0.800781,3.378906 0.800781,1.201172 2.304688,1.201172 1.474609,0 2.265625,-1.152344 0.791015,-1.162109 0.800781,-3.378906 l 0,-0.693359 z"
       style="font-style:normal;font-variant:normal;font-weight:bold;font-stretch:normal;font-size:20px;line-height:125%;font-family:Roboto;-inkscape-font-specification:'Roboto, Bold';text-align:start;writing-mode:lr-tb;text-anchor:start"
       id="path4223"
       inkscape:connector-curvature="0" />
    <path
       d="m 59.523216,-84.762131 -2.333984,0 0,5.205078 -2.929688,0 0,-14.21875 5.283203,0 q 2.519532,0 3.886719,1.123047 1.367188,1.123047 1.367188,3.173828 0,1.455079 -0.634766,2.431641 -0.625,0.966797 -1.904297,1.542969 l 3.076172,5.810547 0,0.136718 -3.144531,0 -2.666016,-5.205078 z m -2.333984,-2.373047 2.363281,0 q 1.103516,0 1.708984,-0.55664 0.605469,-0.566406 0.605469,-1.552735 0,-1.005859 -0.576172,-1.582031 -0.566406,-0.576172 -1.748047,-0.576172 l -2.353515,0 0,4.267578 z"
       style="font-style:normal;font-variant:normal;font-weight:bold;font-stretch:normal;font-size:20px;line-height:125%;font-family:Roboto;-inkscape-font-specification:'Roboto, Bold';text-align:start;writing-mode:lr-tb;text-anchor:start"
       id="path4225"
       inkscape:connector-curvature="0" />
    <path
       d="m 77.794701,-93.775803 0,9.365235 q 0,2.333984 -1.464844,3.691406 -1.455078,1.357422 -3.984375,1.357422 -2.490235,0 -3.955078,-1.318359 -1.464844,-1.31836 -1.494141,-3.623047 l 0,-9.472657 2.929688,0 0,9.384766 q 0,1.396484 0.664062,2.041016 0.673828,0.634765 1.855469,0.634765 2.470703,0 2.509765,-2.597656 l 0,-9.462891 2.939454,0 z"
       style="font-style:normal;font-variant:normal;font-weight:bold;font-stretch:normal;font-size:20px;line-height:125%;font-family:Roboto;-inkscape-font-specification:'Roboto, Bold';text-align:start;writing-mode:lr-tb;text-anchor:start"
       id="path4227"
       inkscape:connector-curvature="0" />
    <path
       d="m 88.029076,-82.48674 -5.136719,0 -0.976563,2.929687 -3.115234,0 5.292969,-14.21875 2.714843,0 5.322266,14.21875 -3.115234,0 -0.986328,-2.929687 z m -4.345704,-2.373047 3.554688,0 -1.787109,-5.322266 -1.767579,5.322266 z"
       style="font-style:normal;font-variant:normal;font-weight:bold;font-stretch:normal;font-size:20px;line-height:125%;font-family:Roboto;-inkscape-font-specification:'Roboto, Bold';text-align:start;writing-mode:lr-tb;text-anchor:start"
       id="path4229"
       inkscape:connector-curvature="0" />
  </g>
  <g
     style="font-style:normal;font-variant:normal;font-weight:normal;font-stretch:normal;font-size:20px;line-height:125%;font-family:Roboto;-inkscape-font-specification:'Roboto, Normal';text-align:start;letter-spacing:0px;word-spacing:0px;writing-mode:lr-tb;text-anchor:start;fill:#eba400;fill-opacity:1;stroke:none;stroke-width:1px;stroke-linecap:butt;stroke-linejoin:miter;stroke-opacity:1"
     id="text4195"
     transform="translate(-14.708763,93.971115)">
    <path
       d="m 104.13259,-83.658615 1.91406,-10.117188 2.91993,0 -3.1543,14.21875 -2.94922,0 -2.31445,-9.511718 -2.314456,9.511718 -2.949219,0 -3.154297,-14.21875 2.919922,0 1.923828,10.097657 2.34375,-10.097657 2.480472,0 2.33398,10.117188 z"
       style="font-style:normal;font-variant:normal;font-weight:bold;font-stretch:normal;font-size:20px;line-height:125%;font-family:Roboto;-inkscape-font-specification:'Roboto, Bold';text-align:start;writing-mode:lr-tb;text-anchor:start"
       id="path4200"
       inkscape:connector-curvature="0" />
    <path
       d="m 119.11306,-85.719162 -5.625,0 0,3.808594 6.60156,0 0,2.353515 -9.53125,0 0,-14.21875 9.51172,0 0,2.373047 -6.58203,0 0,3.388672 5.625,0 0,2.294922 z"
       style="font-style:normal;font-variant:normal;font-weight:bold;font-stretch:normal;font-size:20px;line-height:125%;font-family:Roboto;-inkscape-font-specification:'Roboto, Bold';text-align:start;writing-mode:lr-tb;text-anchor:start"
       id="path4202"
       inkscape:connector-curvature="0" />
    <path
       d="m 121.80837,-79.557053 0,-14.21875 4.98047,0 q 2.58789,0 3.92578,0.996094 1.33789,0.986328 1.33789,2.900391 0,1.044922 -0.53711,1.845703 -0.53711,0.791016 -1.49414,1.162109 1.09375,0.273438 1.71875,1.103516 0.63477,0.830078 0.63477,2.03125 0,2.050781 -1.3086,3.105469 -1.30859,1.054687 -3.73046,1.074218 l -5.52735,0 z m 2.92969,-6.191406 0,3.837891 2.50977,0 q 1.03515,0 1.61132,-0.488281 0.58594,-0.498047 0.58594,-1.367188 0,-1.953125 -2.02148,-1.982422 l -2.68555,0 z m 0,-2.070312 2.16797,0 q 2.2168,-0.03906 2.2168,-1.767578 0,-0.966797 -0.56641,-1.386719 -0.55664,-0.429688 -1.76758,-0.429688 l -2.05078,0 0,3.583985 z"
       style="font-style:normal;font-variant:normal;font-weight:bold;font-stretch:normal;font-size:20px;line-height:125%;font-family:Roboto;-inkscape-font-specification:'Roboto, Bold';text-align:start;writing-mode:lr-tb;text-anchor:start"
       id="path4204"
       inkscape:connector-curvature="0" />
    <path
       d="m 139.58181,-79.557053 0,-14.21875 4.375,0 q 1.875,0 3.34961,0.84961 1.48437,0.839844 2.31445,2.402344 0.83008,1.552734 0.83008,3.535156 l 0,0.654297 q 0,1.982422 -0.82031,3.52539 -0.81055,1.542969 -2.29492,2.392578 -1.48438,0.84961 -3.34961,0.859375 l -4.4043,0 z m 2.92969,-11.845703 0,9.492188 1.41601,0 q 1.71875,0 2.62696,-1.123047 0.9082,-1.123047 0.92773,-3.212891 l 0,-0.751953 q 0,-2.167969 -0.89844,-3.28125 -0.89843,-1.123047 -2.62695,-1.123047 l -1.44531,0 z"
       style="font-style:normal;font-variant:normal;font-weight:bold;font-stretch:normal;font-size:20px;line-height:125%;font-family:Roboto;-inkscape-font-specification:'Roboto, Bold';text-align:start;writing-mode:lr-tb;text-anchor:start"
       id="path4206"
       inkscape:connector-curvature="0" />
    <path
       d="m 161.14431,-85.719162 -5.625,0 0,3.808594 6.60156,0 0,2.353515 -9.53125,0 0,-14.21875 9.51172,0 0,2.373047 -6.58203,0 0,3.388672 5.625,0 0,2.294922 z"
       style="font-style:normal;font-variant:normal;font-weight:bold;font-stretch:normal;font-size:20px;line-height:125%;font-family:Roboto;-inkscape-font-specification:'Roboto, Bold';text-align:start;writing-mode:lr-tb;text-anchor:start"
       id="path4208"
       inkscape:connector-curvature="0" />
    <path
       d="m 171.21267,-83.287521 q 0,-0.830078 -0.58594,-1.269532 -0.58594,-0.449218 -2.10937,-0.9375 -1.52344,-0.498046 -2.41211,-0.976562 -2.42188,-1.308594 -2.42188,-3.525391 0,-1.152343 0.64453,-2.050781 0.6543,-0.908203 1.86524,-1.416016 1.2207,-0.507812 2.73437,-0.507812 1.52344,0 2.71485,0.556641 1.1914,0.546875 1.8457,1.552734 0.66406,1.005859 0.66406,2.285156 l -2.92969,0 q 0,-0.976562 -0.61523,-1.513672 -0.61523,-0.546875 -1.72852,-0.546875 -1.07421,0 -1.66992,0.458985 -0.5957,0.449218 -0.5957,1.191406 0,0.693359 0.69336,1.162109 0.70312,0.46875 2.06055,0.878907 2.5,0.751953 3.64257,1.865234 1.14258,1.113281 1.14258,2.773437 0,1.845704 -1.39648,2.900391 -1.39649,1.044922 -3.75977,1.044922 -1.64062,0 -2.98828,-0.595703 -1.34766,-0.605469 -2.06055,-1.650391 -0.70312,-1.044922 -0.70312,-2.421875 l 2.93945,0 q 0,2.353516 2.8125,2.353516 1.04492,0 1.63086,-0.419922 0.58594,-0.429688 0.58594,-1.191406 z"
       style="font-style:normal;font-variant:normal;font-weight:bold;font-stretch:normal;font-size:20px;line-height:125%;font-family:Roboto;-inkscape-font-specification:'Roboto, Bold';text-align:start;writing-mode:lr-tb;text-anchor:start"
       id="path4210"
       inkscape:connector-curvature="0" />
    <path
       d="m 179.25954,-79.557053 -2.92968,0 0,-14.21875 2.92968,0 0,14.21875 z"
       style="font-style:normal;font-variant:normal;font-weight:bold;font-stretch:normal;font-size:20px;line-height:125%;font-family:Roboto;-inkscape-font-specification:'Roboto, Bold';text-align:start;writing-mode:lr-tb;text-anchor:start"
       id="path4212"
       inkscape:connector-curvature="0" />
    <path
       d="m 193.21462,-81.353928 q -0.79101,0.947266 -2.23633,1.47461 -1.44531,0.517578 -3.20312,0.517578 -1.8457,0 -3.24219,-0.800781 -1.38672,-0.810547 -2.14844,-2.34375 -0.75195,-1.533203 -0.77148,-3.603516 l 0,-0.966797 q 0,-2.128906 0.71289,-3.68164 0.72266,-1.5625 2.07031,-2.382813 1.35742,-0.830078 3.17383,-0.830078 2.5293,0 3.95508,1.210937 1.42578,1.201172 1.68945,3.50586 l -2.85156,0 q -0.19531,-1.220703 -0.86914,-1.78711 -0.66406,-0.566406 -1.83594,-0.566406 -1.49414,0 -2.27539,1.123047 -0.78125,1.123047 -0.79101,3.339844 l 0,0.908203 q 0,2.236328 0.8496,3.378906 0.84961,1.142578 2.49024,1.142578 1.65039,0 2.35351,-0.703125 l 0,-2.451172 -2.66601,0 0,-2.158203 5.5957,0 0,5.673828 z"
       style="font-style:normal;font-variant:normal;font-weight:bold;font-stretch:normal;font-size:20px;line-height:125%;font-family:Roboto;-inkscape-font-specification:'Roboto, Bold';text-align:start;writing-mode:lr-tb;text-anchor:start"
       id="path4214"
       inkscape:connector-curvature="0" />
    <path
       d="m 207.15993,-79.557053 -2.92968,0 -5.70313,-9.355468 0,9.355468 -2.92969,0 0,-14.21875 2.92969,0 5.71289,9.375 0,-9.375 2.91992,0 0,14.21875 z"
       style="font-style:normal;font-variant:normal;font-weight:bold;font-stretch:normal;font-size:20px;line-height:125%;font-family:Roboto;-inkscape-font-specification:'Roboto, Bold';text-align:start;writing-mode:lr-tb;text-anchor:start"
       id="path4216"
       inkscape:connector-curvature="0" />
  </g>
</svg>
