<?xml version="1.0" encoding="UTF-8" standalone="no"?>
<svg
   xmlns:dc="http://purl.org/dc/elements/1.1/"
   xmlns:cc="http://creativecommons.org/ns#"
   xmlns:rdf="http://www.w3.org/1999/02/22-rdf-syntax-ns#"
   xmlns:svg="http://www.w3.org/2000/svg"
   xmlns="http://www.w3.org/2000/svg"
   version="1.1"
   id="svg2"
   viewBox="0 0 234.49706 18.261719"
   height="5.153863mm"
   width="66.180283mm">
  <defs
     id="defs4" />
  <metadata
     id="metadata7">
    <rdf:RDF>
      <cc:Work
         rdf:about="">
        <dc:format>image/svg+xml</dc:format>
        <dc:type
           rdf:resource="http://purl.org/dc/dcmitype/StillImage" />
        <dc:title></dc:title>
      </cc:Work>
    </rdf:RDF>
  </metadata>
  <g
     transform="translate(473.22418,-150.00728)"
     id="layer1">
    <path
       id="path4138"
       d="M -803.43202,308.0765 A 304.86059,304.86059 0 0 1 -498.57145,3.2159264 304.86059,304.86059 0 0 1 -193.71086,308.0765 304.86059,304.86059 0 0 1 -498.57145,612.93708 304.86059,304.86059 0 0 1 -803.43202,308.0765 Z"
       style="opacity:1;fill:none;fill-opacity:1;fill-rule:nonzero;stroke:none;stroke-width:1.85030985;stroke-linecap:round;stroke-linejoin:round;stroke-miterlimit:4;stroke-dasharray:none;stroke-opacity:1" />
    <g
       id="g4283">
      <g
         id="flowRoot4271"
         style="font-style:normal;font-variant:normal;font-weight:200;font-stretch:normal;font-size:25px;line-height:125%;font-family:Roboto;-inkscape-font-specification:'Roboto, Ultra-Light';text-align:start;letter-spacing:0px;word-spacing:0px;writing-mode:lr-tb;text-anchor:start;fill:#171717;fill-opacity:1;stroke:none;stroke-width:1px;stroke-linecap:butt;stroke-linejoin:miter;stroke-opacity:1"
         transform="translate(250.3056,-6.3097699)">
        <path
           id="path4330"
           style=""
           d="m -625.4585,173.23599 0.80567,-2.92968 4.19922,-13.74512 0.73242,0 4.1748,13.74512 0.79346,2.92968 0.83008,-2.92968 3.66211,-13.74512 0.72021,0 -4.78515,17.77344 -0.74463,0 -4.40674,-14.81934 -0.62256,-1.87988 -0.59814,1.87988 -4.44336,14.81934 -0.74463,0 -4.79737,-17.77344 0.73243,0 3.68652,13.74512 0.80566,2.92968 z" />
        <path
           id="path4332"
           style=""
           d="m -596.75977,165.52115 -8.91113,0 0,8.1543 10.15625,0 0,0.65918 -10.81543,0 0,-17.77344 10.81543,0 0,0.65918 -10.15625,0 0,7.6416 8.91113,0 0,0.65918 z" />
        <path
           id="path4334"
           style=""
           d="m -592.07227,174.33463 0,-17.77344 4.6753,0 q 2.86865,0 4.33349,1.17187 1.47705,1.15967 1.47705,3.38135 0,1.61133 -0.81787,2.67334 -0.81787,1.06201 -2.30713,1.35498 1.68457,0.21973 2.80762,1.46485 1.12305,1.23291 1.12305,2.83203 0,2.2705 -1.47705,3.58886 -1.46485,1.30616 -4.08936,1.30616 l -5.7251,0 z m 0.65918,-8.77686 0,8.11768 5.13916,0 q 2.25831,0 3.54004,-1.11084 1.29395,-1.12305 1.29395,-3.10059 0,-1.68457 -1.24512,-2.771 -1.24512,-1.09863 -3.33252,-1.13525 l -5.39551,0 z m 0,-0.65918 4.26026,0 q 2.4292,0 3.66211,-0.92773 1.23291,-0.93994 1.23291,-2.90528 0,-3.78418 -4.99268,-3.84521 l -4.1626,0 0,7.67822 z" />
        <path
           id="path4336"
           style=""
           d="m -570.97852,174.33463 0,-17.77344 4.91944,0 q 2.06299,0 3.73535,0.97656 1.67236,0.97656 2.62451,2.74658 0.95215,1.75782 0.97656,3.94287 l 0,2.30713 q 0,2.22168 -0.93994,4.00391 -0.92773,1.78223 -2.6001,2.7832 -1.67236,1.00098 -3.73535,1.01319 l -4.98047,0 z m 0.65918,-17.11426 0,16.45508 4.26026,0 q 1.86767,0 3.39355,-0.90332 1.53809,-0.91553 2.40479,-2.53907 0.8667,-1.63574 0.8789,-3.62548 l 0,-2.28272 q 0,-1.98975 -0.85449,-3.61328 -0.84228,-1.62354 -2.36816,-2.53906 -1.51367,-0.92774 -3.35694,-0.95215 l -4.35791,0 z" />
        <path
           id="path4338"
           style=""
           d="m -545.05078,165.52115 -8.91113,0 0,8.1543 10.15625,0 0,0.65918 -10.81543,0 0,-17.77344 10.81543,0 0,0.65918 -10.15625,0 0,7.6416 8.91113,0 0,0.65918 z" />
        <path
           id="path4340"
           style=""
           d="m -529.71875,170.07437 q 0,-1.13525 -0.53711,-1.9165 -0.5249,-0.79346 -1.67236,-1.3916 -1.13526,-0.61035 -3.44239,-1.24512 -2.30712,-0.63477 -3.46679,-1.28174 -1.14746,-0.64697 -1.68457,-1.50146 -0.53711,-0.8545 -0.53711,-2.0752 0,-1.94092 1.63574,-3.13721 1.63574,-1.20849 4.26025,-1.20849 1.70899,0 3.06397,0.67139 1.36719,0.65917 2.11182,1.86767 0.74462,1.19629 0.74462,2.70996 l -0.65918,0 q 0,-1.98974 -1.46484,-3.28369 -1.46484,-1.30615 -3.79639,-1.30615 -2.34375,0 -3.79638,1.0498 -1.44043,1.0376 -1.44043,2.61231 0,1.59912 1.25732,2.57568 1.25733,0.97656 4.15039,1.7334 2.89307,0.74463 4.23584,1.7334 1.70899,1.25732 1.70899,3.36914 0,1.34277 -0.75684,2.38037 -0.75684,1.02539 -2.14844,1.58691 -1.3916,0.56153 -3.125,0.56153 -1.92871,0 -3.46679,-0.63477 -1.53809,-0.64697 -2.31934,-1.83105 -0.76904,-1.18409 -0.76904,-2.79541 l 0.65918,0 q 0,2.18506 1.63574,3.39355 1.63574,1.2085 4.26025,1.2085 2.33155,0 3.84522,-1.06201 1.51367,-1.07422 1.51367,-2.78321 z" />
        <path
           id="path4342"
           style=""
           d="m -524.4209,174.33463 -0.65918,0 0,-17.77344 0.65918,0 0,17.77344 z" />
        <path
           id="path4344"
           style=""
           d="m -506.50098,172.43033 q -0.67138,0.92773 -2.35595,1.53809 -1.68457,0.61035 -3.71094,0.61035 -1.97754,0 -3.52783,-0.96436 -1.5503,-0.96435 -2.4292,-2.72217 -0.8667,-1.75781 -0.89112,-3.97949 l 0,-3.05176 q 0,-2.18505 0.84229,-3.91845 0.84228,-1.7334 2.36816,-2.67334 1.52588,-0.95215 3.43018,-0.95215 2.64893,0 4.30908,1.35498 1.67236,1.35498 1.94092,3.69873 l -0.65918,0 q -0.32959,-2.12402 -1.77002,-3.25928 -1.44043,-1.13525 -3.8208,-1.13525 -2.68555,0 -4.3335,1.9165 -1.64795,1.91651 -1.64795,5.04151 l 0,2.83203 q 0,2.0874 0.76905,3.72314 0.78125,1.63574 2.18506,2.53906 1.41601,0.89112 3.23486,0.89112 1.78223,0 3.3081,-0.5249 1.52588,-0.52491 2.09961,-1.26954 l 0,-5.17578 -5.43213,0 0,-0.67138 6.09131,0 0,6.15234 z" />
        <path
           id="path4346"
           style=""
           d="m -489.03271,174.33463 -0.65918,0 -11.47461,-16.65039 0,16.65039 -0.67139,0 0,-17.77344 0.67139,0 11.47461,16.61377 0,-16.61377 0.65918,0 0,17.77344 z" />
      </g>
      <g
         id="text4279"
         style="font-style:normal;font-weight:normal;font-size:40px;line-height:125%;font-family:sans-serif;letter-spacing:0px;word-spacing:0px;fill:#000000;fill-opacity:1;stroke:none;stroke-width:1px;stroke-linecap:butt;stroke-linejoin:miter;stroke-opacity:1">
        <path
           id="path4349"
           style="font-style:normal;font-variant:normal;font-weight:200;font-stretch:normal;font-size:25px;line-height:125%;font-family:Roboto;-inkscape-font-specification:'Roboto, Ultra-Light';text-align:start;writing-mode:lr-tb;text-anchor:start;fill:#ffffff;fill-opacity:1"
           d="m -459.62555,150.9106 -6.46973,0 0,17.11426 -0.65918,0 0,-17.11426 -6.46972,0 0,-0.65918 13.59863,0 0,0.65918 z" />
        <path
           id="path4351"
           style="font-style:normal;font-variant:normal;font-weight:200;font-stretch:normal;font-size:25px;line-height:125%;font-family:Roboto;-inkscape-font-specification:'Roboto, Ultra-Light';text-align:start;writing-mode:lr-tb;text-anchor:start;fill:#ffffff;fill-opacity:1"
           d="m -451.49567,158.44234 5.73731,-8.19092 0.83008,0 -6.15235,8.70361 6.38428,9.06983 -0.81787,0 -5.98145,-8.55713 -6.00586,8.55713 -0.79345,0 6.38427,-9.06983 -6.15234,-8.70361 0.83008,0 5.7373,8.19092 z" />
        <path
           id="path4353"
           style="font-style:normal;font-variant:normal;font-weight:200;font-stretch:normal;font-size:25px;line-height:125%;font-family:Roboto;-inkscape-font-specification:'Roboto, Ultra-Light';text-align:start;writing-mode:lr-tb;text-anchor:start;fill:#ffffff;fill-opacity:1"
           d="m -429.27887,160.4687 q 0,2.30713 -0.83008,4.08936 -0.81787,1.77002 -2.34375,2.74658 -1.52588,0.96436 -3.51562,0.96436 -3.00293,0 -4.8584,-2.13623 -1.85547,-2.13623 -1.85547,-5.76172 l 0,-2.56348 q 0,-2.29492 0.81787,-4.07715 0.83008,-1.78222 2.35596,-2.74658 1.53808,-0.97656 3.51562,-0.97656 1.98975,0 3.51563,0.97656 1.53808,0.96436 2.36816,2.75879 0.83008,1.78223 0.83008,4.06494 l 0,2.66113 z m -0.65918,-2.68554 q 0,-3.22266 -1.63574,-5.16358 -1.63574,-1.95312 -4.41895,-1.95312 -2.74658,0 -4.38232,1.94092 -1.63574,1.92871 -1.63574,5.26123 l 0,2.60009 q 0,2.12403 0.73242,3.75977 0.74463,1.62354 2.11182,2.50244 1.36718,0.87891 3.19824,0.87891 2.7832,0 4.40674,-1.94092 1.62353,-1.94092 1.62353,-5.29785 l 0,-2.58789 z" />
        <path
           id="path4355"
           style="font-style:normal;font-variant:normal;font-weight:200;font-stretch:normal;font-size:25px;line-height:125%;font-family:Roboto;-inkscape-font-specification:'Roboto, Ultra-Light';text-align:start;writing-mode:lr-tb;text-anchor:start;fill:#ffffff;fill-opacity:1"
           d="m -418.45123,160.41988 -6.16455,0 0,7.60498 -0.65918,0 0,-17.77344 5.66406,0 q 2.67334,0 4.24805,1.37939 1.58691,1.3794 1.58691,3.74756 0,1.81885 -1.13525,3.18604 -1.12305,1.35498 -2.86866,1.68457 l 4.74854,7.60498 0,0.1709 -0.6958,0 -4.72412,-7.60498 z m -6.16455,-0.65918 5.60302,0 q 2.05078,0 3.30811,-1.24512 1.26953,-1.24512 1.26953,-3.13721 0,-2.07519 -1.40381,-3.27148 -1.3916,-1.19629 -3.8208,-1.19629 l -4.95605,0 0,8.8501 z" />
        <path
           id="path4357"
           style="font-style:normal;font-variant:normal;font-weight:200;font-stretch:normal;font-size:25px;line-height:125%;font-family:Roboto;-inkscape-font-specification:'Roboto, Ultra-Light';text-align:start;writing-mode:lr-tb;text-anchor:start;fill:#ffffff;fill-opacity:1"
           d="m -396.89362,150.25142 0,12.03613 q 0,2.81983 -1.63574,4.40674 -1.63574,1.57471 -4.43115,1.57471 -2.79541,0 -4.43115,-1.57471 -1.63574,-1.58691 -1.64795,-4.35791 l 0,-12.08496 0.65918,0 0,12.01172 q 0,2.46582 1.47705,3.90625 1.48926,1.44043 3.94287,1.44043 2.45361,0 3.93066,-1.44043 1.47705,-1.44043 1.47705,-3.91846 l 0,-11.99951 0.65918,0 z" />
        <path
           id="path4359"
           style="font-style:normal;font-variant:normal;font-weight:200;font-stretch:normal;font-size:25px;line-height:125%;font-family:Roboto;-inkscape-font-specification:'Roboto, Ultra-Light';text-align:start;writing-mode:lr-tb;text-anchor:start;fill:#ffffff;fill-opacity:1"
           d="m -383.08746,162.7148 -8.70362,0 -1.97754,5.31006 -0.72021,0 6.65283,-17.77344 0.80567,0 6.65283,17.77344 -0.72022,0 -1.98974,-5.31006 z m -8.45948,-0.65918 8.21534,0 -4.10157,-11.01074 -4.11377,11.01074 z" />
      </g>
    </g>
  </g>
</svg>
